<svg width="72" height="72" viewBox="0 0 72 72" fill="none" xmlns="http://www.w3.org/2000/svg">
<rect width="72" height="72" rx="36" fill="#F4F5F7"/>
<path d="M36 52.5218C35.8141 52.5207 35.6311 52.476 35.4656 52.3915C34.1831 51.7521 22.9375 45.9621 22.9375 39.4971V25.2884C22.9373 25.0513 23.0085 24.8196 23.1418 24.6232C23.2752 24.4269 23.4647 24.275 23.6856 24.1873L35.5606 19.451C35.8428 19.339 36.1572 19.339 36.4394 19.451L48.3144 24.1873C48.5353 24.275 48.7248 24.4269 48.8582 24.6232C48.9915 24.8196 49.0627 25.0513 49.0625 25.2884V39.4971C49.0625 45.9621 37.8169 51.7521 36.5344 52.3915C36.3689 52.476 36.1859 52.5207 36 52.5218ZM24.3125 26.0936V39.4971C24.3125 43.5348 32.58 49.2 36 51.0116C39.42 49.2 47.6875 43.5229 47.6875 39.4971V26.0936L36 20.831L24.3125 26.0936Z" fill="black"/>
</svg>
