<svg width="72" height="72" viewBox="0 0 72 72" fill="none" xmlns="http://www.w3.org/2000/svg">
<rect width="72" height="72" rx="36" fill="#F4F5F7"/>
<path d="M36.0001 40.9912C33.7253 40.9912 31.5878 40.1043 29.9809 38.4975C28.3741 36.8906 27.4872 34.7531 27.4872 32.4783C27.4872 30.2035 28.3741 28.066 29.9809 26.4592C31.5878 24.8524 33.7253 23.9655 36.0001 23.9655C38.2749 23.9655 40.4124 24.8524 42.0192 26.4592C43.626 28.066 44.513 30.2035 44.513 32.4783C44.513 34.7531 43.626 36.8906 42.0192 38.4975C40.4087 40.108 38.2749 40.9912 36.0001 40.9912ZM36.0001 25.0862C31.9218 25.0862 28.6042 28.4037 28.6042 32.4821C28.6042 36.5604 31.9218 39.878 36.0001 39.878C40.0784 39.878 43.396 36.5604 43.396 32.4821C43.396 28.4037 40.0784 25.0862 36.0001 25.0862Z" fill="black"/>
<path d="M34.7347 35.8219L31.7622 32.8494L32.5489 32.0627L34.7347 34.2484L39.4513 29.5355L40.238 30.3222L34.7347 35.8219Z" fill="black"/>
<path d="M36.0001 46.0604C35.4694 46.0604 34.9387 45.9305 34.4526 45.6707C34.3524 45.6187 34.2559 45.5594 34.1632 45.4963C33.9887 45.3813 33.8255 45.2439 33.677 45.0955L32.2594 43.6779C31.8512 43.2697 31.3057 43.0434 30.7268 43.0434H28.7229C26.912 43.0434 25.4387 41.5701 25.4387 39.7592V37.7553C25.4387 37.1838 25.2087 36.6234 24.8042 36.2227L23.3866 34.8051C22.1063 33.5248 22.1063 31.443 23.3866 30.1627L24.8042 28.7451C25.2087 28.3406 25.4387 27.7803 25.4387 27.2125V25.2086C25.4387 23.3977 26.912 21.9244 28.7229 21.9244H30.7268C31.3057 21.9244 31.8512 21.698 32.2594 21.2898L33.677 19.8723C34.2968 19.2525 35.1206 18.9111 36.0001 18.9111C36.8796 18.9111 37.6997 19.2525 38.3231 19.8723L39.7407 21.2898C40.1489 21.7018 40.6944 21.9244 41.2733 21.9244H43.2772C45.0882 21.9244 46.5614 23.3977 46.5614 25.2086V27.2125C46.5614 27.7914 46.7878 28.3369 47.196 28.7451L48.6135 30.1627C49.8938 31.443 49.8938 33.5248 48.6135 34.8051L47.196 36.2227C46.7878 36.6309 46.5614 37.1764 46.5614 37.7553V39.7592C46.5614 41.5701 45.0882 43.0434 43.2772 43.0434H41.2733C40.6944 43.0434 40.1489 43.2697 39.7407 43.6779L38.3231 45.0955C38.1747 45.2439 38.0114 45.3813 37.837 45.4963C37.7479 45.5594 37.6477 45.615 37.5475 45.6707C37.0614 45.9305 36.5307 46.0604 36.0001 46.0604ZM28.7192 23.034C27.5243 23.034 26.5483 24.0063 26.5483 25.2049V27.2088C26.5483 28.0846 26.2069 28.9084 25.5872 29.5281L24.1696 30.9457C23.3235 31.7918 23.3235 33.1686 24.1696 34.0146L25.5872 35.4322C26.2069 36.052 26.5483 36.8758 26.5483 37.7553V39.7592C26.5483 40.9541 27.5206 41.9301 28.7192 41.9301H30.7231C31.5989 41.9301 32.4227 42.2715 33.0462 42.8912L34.4637 44.3088C34.5639 44.409 34.6716 44.498 34.7866 44.576C34.846 44.6168 34.9091 44.6539 34.9759 44.691C35.6178 45.0324 36.3823 45.0324 37.0206 44.691C37.0874 44.6576 37.1505 44.6168 37.2098 44.5797C37.3249 44.5018 37.4362 44.4127 37.5327 44.3125L38.9503 42.8949C39.57 42.2752 40.3938 41.9338 41.2733 41.9338H43.2772C44.4721 41.9338 45.4481 40.9615 45.4481 39.7629V37.759C45.4481 36.8832 45.7895 36.0557 46.4092 35.4359L47.8268 34.0184C48.6729 33.1723 48.6729 31.7955 47.8268 30.9494L46.4092 29.5318C45.7895 28.9121 45.4481 28.0883 45.4481 27.2088V25.2049C45.4481 24.01 44.4758 23.034 43.2772 23.034H41.2733C40.3975 23.034 39.57 22.6926 38.9503 22.0729L37.5327 20.6553C36.6866 19.8092 35.3098 19.8092 34.4637 20.6553L33.0462 22.0729C32.4264 22.6926 31.6026 23.034 30.7231 23.034H28.7192Z" fill="black"/>
<path d="M31.9811 53.0407L29.4206 49.8938L25.4091 50.5024L28.7192 41.9338H30.7231C31.5989 41.9338 32.4227 42.2752 33.0462 42.895L34.4637 44.3125C34.5639 44.4127 34.6716 44.5018 34.7866 44.5797L35.154 44.8284L31.9811 53.0407ZM29.8844 48.6952L31.636 50.8475L33.8106 45.2217C33.7661 45.1809 33.7216 45.1401 33.6807 45.0993L32.2632 43.6817C31.855 43.2735 31.3094 43.0471 30.7305 43.0471H29.4874L27.1421 49.1145L29.8844 48.6952Z" fill="black"/>
<path d="M40.019 53.0406L36.8462 44.8246L37.2136 44.576C37.3286 44.498 37.4362 44.409 37.5364 44.3088L38.954 42.8912C39.5737 42.2715 40.3976 41.9301 41.277 41.9301H43.2809L46.5911 50.4986L42.5796 49.89L40.019 53.0406ZM38.1895 45.2217L40.3642 50.8511L42.1157 48.6988L44.8581 49.1144L42.5128 43.047H41.2696C40.6907 43.047 40.1452 43.2734 39.737 43.6816L38.3194 45.0992C38.2786 45.14 38.2341 45.1808 38.1895 45.2217Z" fill="black"/>
</svg>
