<svg width="72" height="72" viewBox="0 0 72 72" fill="none" xmlns="http://www.w3.org/2000/svg">
<rect width="72" height="72" rx="36" fill="#F4F5F7"/>
<g clip-path="url(#clip0)">
<path d="M53 39.8542C52.9727 39.6829 52.9072 39.5199 52.8084 39.3773C52.7095 39.2348 52.5798 39.1163 52.4289 39.0308C51.6002 38.5181 49.6983 38.0904 47.8628 39.0069C47.0978 39.3894 46.3275 39.8489 45.6103 40.2898C45.5937 40.2568 45.5751 40.2249 45.5545 40.1942C45.3155 39.8383 44.8612 39.6629 44.2078 39.6629C43.395 39.6629 41.8916 40.4598 39.8595 41.5994C39.245 41.9632 38.611 42.2931 37.9603 42.5875C37.5353 42.537 37.1209 42.4972 36.672 42.4547C35.9814 42.3883 35.2005 42.3139 34.1512 42.1758C33.791 42.0458 33.4469 41.8747 33.1259 41.6658C30.7796 40.2724 28.1883 39.341 25.4919 38.9219C21.3189 38.202 19.3984 39.0175 19.3187 39.052C19.1895 39.1084 19.0879 39.2138 19.0363 39.345C18.9848 39.4763 18.9875 39.6227 19.0438 39.7519C19.1002 39.8812 19.2056 39.9828 19.3368 40.0343C19.4681 40.0859 19.6145 40.0832 19.7437 40.0269C19.7623 40.0269 21.4517 39.3044 25.3219 39.9684C27.8927 40.3721 30.3624 41.2648 32.5973 42.5981C33.2083 42.9408 33.6094 43.1718 33.9972 43.225C35.0597 43.3684 35.8566 43.4428 36.5578 43.5092C37.7038 43.5946 38.842 43.7642 39.9631 44.0165C41.95 44.4654 43.2542 45.2676 43.6367 46.269C43.8333 46.8003 43.828 47.3315 43.4136 47.7565C43.2978 47.8695 43.1617 47.9596 43.0125 48.0222C42.2342 48.3383 40.3562 47.7273 39.2778 47.4165C38.5393 47.168 37.7788 46.9902 37.0067 46.8853C34.7213 46.7995 32.4334 46.9688 30.1855 47.39C30.0474 47.4182 29.9262 47.5 29.8484 47.6176C29.7707 47.7352 29.7429 47.8788 29.7711 48.0168C29.7993 48.1549 29.8811 48.2762 29.9987 48.3539C30.1163 48.4316 30.2599 48.4594 30.398 48.4312C32.5594 48.0347 34.7575 47.8744 36.9536 47.9531C37.6428 48.0549 38.3219 48.2166 38.983 48.4365C39.833 48.6809 40.6936 48.9253 41.4772 49.0661C38.7811 50.6997 36.2922 51.9375 35.1261 51.9375C32.8258 51.9375 23.2633 47.2997 19.773 45.5147C19.6481 45.4554 19.5051 45.4472 19.3743 45.4916C19.2435 45.5361 19.1351 45.6298 19.0722 45.7528C19.0093 45.8758 18.9968 46.0185 19.0374 46.1506C19.078 46.2827 19.1684 46.3938 19.2895 46.4603C19.8208 46.7259 32.1006 53 35.1261 53C36.672 53 40.0534 51.2309 43.4269 49.0793C43.743 48.8748 43.9422 48.7606 44.2237 48.5693C48.2187 45.9423 52.0145 42.9222 52.4687 41.8437C52.5909 41.5787 52.6561 41.2909 52.66 40.999C52.9092 40.6717 53.0301 40.2645 53 39.8542ZM48.3383 39.9578C49.7753 39.2379 51.2602 39.562 51.8711 39.9339C51.8884 39.9444 51.9044 39.9569 51.9189 39.9711C51.308 39.7559 50.3703 39.8861 49.1086 40.3722C48.1922 40.7256 47.3231 41.1913 46.5214 41.7587C45.7644 42.2554 44.7311 42.9301 42.8451 43.9528C42.5478 43.7826 42.2389 43.6335 41.9208 43.5065C42.6884 43.1506 43.6022 42.7097 43.9873 42.5104C44.4575 42.2448 45.0126 41.9101 45.597 41.5462C46.4337 41.0203 47.3953 40.4226 48.325 39.9578H48.3383ZM40.3695 42.5237C41.5781 41.8437 43.5942 40.7494 44.1945 40.7228C44.3991 40.696 44.6071 40.7159 44.8028 40.7812C44.3114 41.084 43.8519 41.3656 43.4747 41.5781C42.8983 41.8915 40.9831 42.7734 40.412 43.0337L40.2048 42.9833L39.7187 42.877C39.918 42.7734 40.1252 42.6565 40.3616 42.5237H40.3695ZM51.5072 41.432C51.1619 42.2289 48.1869 44.6195 44.8134 46.9172C44.821 46.5673 44.7615 46.2193 44.6381 45.8918C44.449 45.4183 44.1558 44.9935 43.7802 44.6487C45.4323 43.7376 46.3859 43.1161 47.0978 42.6486C47.8382 42.1223 48.6412 41.6905 49.4884 41.3629C50.9786 40.7892 51.547 40.9247 51.6134 40.9858C51.6201 41.1425 51.5804 41.2977 51.4992 41.432H51.5072Z" fill="black"/>
<path d="M36 38.125C37.8913 38.125 39.7401 37.5641 41.3126 36.5134C42.8852 35.4627 44.1108 33.9692 44.8346 32.2219C45.5584 30.4746 45.7477 28.5519 45.3788 26.6969C45.0098 24.842 44.099 23.1381 42.7617 21.8008C41.4244 20.4634 39.7205 19.5527 37.8656 19.1837C36.0106 18.8147 34.0879 19.0041 32.3406 19.7279C30.5933 20.4516 29.0998 21.6773 28.0491 23.2498C26.9983 24.8224 26.4375 26.6712 26.4375 28.5625C26.4375 31.0986 27.445 33.5309 29.2383 35.3242C31.0316 37.1175 33.4639 38.125 36 38.125ZM35.4688 20.0811V20.7531C35.4688 20.894 35.5247 21.0291 35.6243 21.1287C35.724 21.2284 35.8591 21.2843 36 21.2843C36.1409 21.2843 36.276 21.2284 36.3757 21.1287C36.4753 21.0291 36.5312 20.894 36.5312 20.7531V20.0811C38.5972 20.2109 40.5448 21.0902 42.0085 22.5539C43.4723 24.0177 44.3516 25.9653 44.4814 28.0312H43.8094C43.6685 28.0312 43.5334 28.0872 43.4337 28.1868C43.3341 28.2865 43.2781 28.4216 43.2781 28.5625C43.2781 28.7034 43.3341 28.8385 43.4337 28.9381C43.5334 29.0378 43.6685 29.0937 43.8094 29.0937H44.4814C44.3516 31.1597 43.4723 33.1073 42.0085 34.571C40.5448 36.0348 38.5972 36.914 36.5312 37.0439V36.3718C36.5312 36.231 36.4753 36.0958 36.3757 35.9962C36.276 35.8966 36.1409 35.8406 36 35.8406C35.8591 35.8406 35.724 35.8966 35.6243 35.9962C35.5247 36.0958 35.4688 36.231 35.4688 36.3718V37.0439C33.4028 36.914 31.4552 36.0348 29.9915 34.571C28.5277 33.1073 27.6484 31.1597 27.5186 29.0937H28.1906C28.3315 29.0937 28.4666 29.0378 28.5663 28.9381C28.6659 28.8385 28.7219 28.7034 28.7219 28.5625C28.7219 28.4216 28.6659 28.2865 28.5663 28.1868C28.4666 28.0872 28.3315 28.0312 28.1906 28.0312H27.5186C27.6484 25.9653 28.5277 24.0177 29.9915 22.5539C31.4552 21.0902 33.4028 20.2109 35.4688 20.0811Z" fill="black"/>
<path d="M33.5377 33.3225C33.6126 33.3632 33.6967 33.3842 33.782 33.3836C33.8796 33.3838 33.9753 33.3571 34.0587 33.3065C34.1421 33.2559 34.21 33.1833 34.2548 33.0967L35.7583 30.1748C35.8381 30.1886 35.919 30.1957 36 30.1961C36.385 30.1913 36.7561 30.0513 37.0484 29.8006C37.3406 29.5498 37.5354 29.2044 37.5987 28.8245C37.662 28.4447 37.5898 28.0547 37.3947 27.7228C37.1995 27.3908 36.8939 27.138 36.5312 27.0086V23.1252C36.5312 22.9843 36.4753 22.8491 36.3756 22.7495C36.276 22.6499 36.1409 22.5939 36 22.5939C35.8591 22.5939 35.724 22.6499 35.6243 22.7495C35.5247 22.8491 35.4687 22.9843 35.4687 23.1252V27.0112C35.208 27.1002 34.974 27.2535 34.7882 27.4569C34.6024 27.6602 34.4708 27.9072 34.4057 28.1748C34.3406 28.4425 34.344 28.7222 34.4156 28.9882C34.4871 29.2542 34.6246 29.4979 34.8153 29.6967L33.3092 32.6186C33.2483 32.7426 33.2381 32.8854 33.2807 33.0169C33.3234 33.1483 33.4155 33.2579 33.5377 33.3225ZM36 27.9834C36.1145 27.9834 36.2265 28.0174 36.3217 28.081C36.4169 28.1447 36.4911 28.2351 36.535 28.3409C36.5788 28.4467 36.5903 28.5631 36.5679 28.6755C36.5456 28.7878 36.4904 28.891 36.4095 28.972C36.3285 29.0529 36.2253 29.1081 36.113 29.1304C36.0006 29.1528 35.8842 29.1413 35.7784 29.0975C35.6726 29.0537 35.5821 28.9794 35.5185 28.8842C35.4549 28.789 35.4209 28.677 35.4209 28.5625C35.4216 28.4091 35.4829 28.2623 35.5913 28.1538C35.6998 28.0454 35.8466 27.9841 36 27.9834Z" fill="black"/>
</g>
<defs>
<clipPath id="clip0">
<rect width="34" height="34" fill="white" transform="translate(19 19)"/>
</clipPath>
</defs>
</svg>
